<?xml version="1.0" encoding="utf-8"?>
<!-- Generator: Adobe Illustrator 23.0.6, SVG Export Plug-In . SVG Version: 6.00 Build 0)  -->
<svg version="1.1" id="Layer_1" xmlns="http://www.w3.org/2000/svg" xmlns:xlink="http://www.w3.org/1999/xlink" x="0px" y="0px"
	 viewBox="0 0 22.5 25.1" style="enable-background:new 0 0 22.5 25.1;" xml:space="preserve">
<style type="text/css">
	.st0{fill:none;}
	.st1{fill:#FFFFFF;}
</style>
<g id="Group_20" transform="translate(-22 -52)">
	<g id="Rectangle_295" transform="translate(22 52)">
		<g>
			<rect class="st0" width="9.6" height="9.8"/>
		</g>
		<g>
			<path class="st1" d="M9.6,9.8H0V0h9.6V9.8z M2,7.8h5.6V2H2V7.8z"/>
		</g>
	</g>
	<g id="Rectangle_298" transform="translate(34.857 69.467)">
		<g>
			<rect x="0" y="0" class="st0" width="9.6" height="7.6"/>
		</g>
		<g>
			<path class="st1" d="M9.6,7.6H0V0h9.6V7.6z M2,5.6h5.6V2H2V5.6z"/>
		</g>
	</g>
	<g id="Rectangle_297" transform="translate(22 65.038)">
		<g>
			<rect y="0" class="st0" width="9.6" height="12.1"/>
		</g>
		<g>
			<path class="st1" d="M9.6,12.1H0V0h9.6V12.1z M2,10.1h5.6V2H2V10.1z"/>
		</g>
	</g>
	<g id="Rectangle_296" transform="translate(34.857 52)">
		<g>
			<rect x="0" class="st0" width="9.6" height="14.3"/>
		</g>
		<g>
			<path class="st1" d="M9.6,14.3H0V0h9.6V14.3z M2,12.3h5.6V2H2V12.3z"/>
		</g>
	</g>
</g>
</svg>
