<svg xmlns="http://www.w3.org/2000/svg" width="16.926" height="20.929" viewBox="0 0 16.926 20.929"><defs><style>.a{fill:#4d6868;}</style></defs><g transform="translate(-46.154)"><g transform="translate(46.155)"><path class="a" d="M60.689,2.507H57.431a2.832,2.832,0,0,0-5.627,0H48.546A2.394,2.394,0,0,0,46.155,4.9v.123a2.393,2.393,0,0,0,1.511,2.221v11.3a2.394,2.394,0,0,0,2.391,2.391h9.121a2.394,2.394,0,0,0,2.391-2.391V7.242a2.393,2.393,0,0,0,1.511-2.221V4.9A2.394,2.394,0,0,0,60.689,2.507ZM54.617,1.134a1.7,1.7,0,0,1,1.668,1.373H52.95A1.7,1.7,0,0,1,54.617,1.134Zm5.817,17.4A1.259,1.259,0,0,1,59.177,19.8H50.057A1.259,1.259,0,0,1,48.8,18.538V7.412H60.434ZM61.945,5.021a1.259,1.259,0,0,1-1.257,1.257H48.546a1.259,1.259,0,0,1-1.257-1.257V4.9a1.259,1.259,0,0,1,1.257-1.257H60.689A1.259,1.259,0,0,1,61.945,4.9v.123Z" transform="translate(-46.155)"/><path class="a" d="M158.642,257.089a.567.567,0,0,0,.567-.567v-6.384a.567.567,0,1,0-1.134,0v6.384A.567.567,0,0,0,158.642,257.089Z" transform="translate(-153.22 -238.744)"/><path class="a" d="M228.712,257.089a.567.567,0,0,0,.567-.567v-6.384a.567.567,0,1,0-1.134,0v6.384A.567.567,0,0,0,228.712,257.089Z" transform="translate(-220.25 -238.744)"/><path class="a" d="M298.781,257.089a.567.567,0,0,0,.567-.567v-6.384a.567.567,0,1,0-1.134,0v6.384A.567.567,0,0,0,298.781,257.089Z" transform="translate(-287.279 -238.744)"/></g></g></svg>