<?xml version="1.0" encoding="utf-8"?>
<!-- Generator: Adobe Illustrator 23.0.6, SVG Export Plug-In . SVG Version: 6.00 Build 0)  -->
<svg version="1.1" id="Layer_1" xmlns="http://www.w3.org/2000/svg" xmlns:xlink="http://www.w3.org/1999/xlink" x="0px" y="0px"
	 viewBox="0 0 34.5 28.4" style="enable-background:new 0 0 34.5 28.4;" xml:space="preserve">
<style type="text/css">
	.st0{fill:#FFFFFF;}
</style>
<g id="Group_76_1_" transform="translate(2757.569 317.421)">
</g>
<g>
	<path class="st0" d="M19.1,5.2L19.1,5.2l-3.8,0C9.6,5.2,5.1,9.8,5.1,15.4V23c0,2.7,2.2,4.9,4.9,4.9h14.5c2.7,0,4.9-2.2,4.9-4.9
		v-7.6C29.3,9.8,24.7,5.2,19.1,5.2z M19.5,23.4h-4.5c-0.3,0-0.6-0.3-0.6-0.6c0-0.3,0.3-0.6,0.6-0.6h4.5c0.3,0,0.6,0.3,0.6,0.6
		C20,23.2,19.8,23.4,19.5,23.4z M24.6,18.4H9.8c-1.6,0-2.9-1.3-2.9-2.9c0-3.7,3-6.7,6.7-6.7h7.3c3.7,0,6.7,3,6.7,6.7
		C27.6,17,26.3,18.4,24.6,18.4z"/>
	<path class="st0" d="M20.9,9.5L20.9,9.5h-7.3c-3.3,0-5.9,2.6-5.9,5.9c0,1.2,1,2.1,2.1,2.1h14.8c1.2,0,2.1-1,2.1-2.1
		C26.8,12.2,24.1,9.5,20.9,9.5z M13,14.8c0,0.9-0.7,1.5-1.5,1.5c0,0,0,0,0,0c-0.9,0-1.5-0.7-1.5-1.5c0-0.9,0.7-1.5,1.5-1.5
		C12.3,13.2,13,13.9,13,14.8C13,14.8,13,14.8,13,14.8z M24.2,14.8c0,0.9-0.7,1.5-1.5,1.5c-0.9,0-1.5-0.7-1.5-1.5
		c0-0.9,0.7-1.5,1.5-1.5C23.5,13.2,24.2,13.9,24.2,14.8C24.2,14.8,24.2,14.8,24.2,14.8z"/>
	<path class="st0" d="M34.5,16.4c0-2.7-0.7-4.9-1.6-5c-0.1,0-0.2,0-0.3,0.1c-2.2-6.4-8.2-11-15.4-11C10.3,0.6,4.4,4.9,2,11
		c-0.1,0-0.2-0.1-0.2-0.1c-0.9,0-1.7,2.2-1.8,4.9c0,2.1,0.4,3.9,1,4.6c0.4,2.5,1.9,4.7,4,6c-0.7-1-1.1-2.2-1.1-3.4v-7.6
		C3.9,9.1,9,4.1,15.3,4h3.8l0,0c6.3,0,11.4,5.1,11.4,11.4V23c0,1.3-0.4,2.5-1.1,3.4c1.9-1.2,3.3-3.1,3.8-5.3
		C33.9,20.5,34.5,18.7,34.5,16.4z"/>
</g>
</svg>
