<svg xmlns="http://www.w3.org/2000/svg" width="25.666" height="25.667" viewBox="0 0 25.666 25.667"><defs><style>.a{fill:#fff;}</style></defs><circle class="a" cx="1.253" cy="1.253" r="1.253" transform="translate(11.58 17.721)"/><path class="a" d="M12.833,0A12.833,12.833,0,1,0,25.667,12.833,12.826,12.826,0,0,0,12.833,0Zm0,23.661A10.828,10.828,0,1,1,23.661,12.833,10.822,10.822,0,0,1,12.833,23.661Z"/><path class="a" d="M180.01,128.5a4.015,4.015,0,0,0-4.01,4.01,1,1,0,1,0,2.005,0,2.005,2.005,0,1,1,2.005,2.005,1,1,0,0,0-1,1v2.507a1,1,0,1,0,2.005,0v-1.631a4.011,4.011,0,0,0-1-7.894Z" transform="translate(-167.177 -122.058)"/></svg>