<?xml version="1.0" encoding="UTF-8"?>
<svg xmlns="http://www.w3.org/2000/svg" xmlns:xlink="http://www.w3.org/1999/xlink" width="18pt" height="18pt" viewBox="0 0 18 18" version="1.1">
<g id="surface1">
<path style=" stroke:none;fill-rule:nonzero;fill:rgb(9.803922%,11.372549%,11.372549%);fill-opacity:1;" d="M 8.679688 0.0195312 C 7.53125 0.0664062 6.449219 0.316406 5.378906 0.78125 C 5.175781 0.871094 4.699219 1.113281 4.492188 1.238281 C 3.417969 1.863281 2.472656 2.71875 1.746094 3.714844 C 1.050781 4.664062 0.535156 5.773438 0.265625 6.898438 C 0.09375 7.613281 0.0195312 8.246094 0.0195312 9.003906 C 0.0195312 9.574219 0.0546875 9.984375 0.144531 10.511719 C 0.765625 14.171875 3.605469 17.09375 7.253906 17.820312 C 8.863281 18.144531 10.554688 18.015625 12.089844 17.453125 C 13.332031 17 14.425781 16.300781 15.371094 15.355469 C 15.691406 15.039062 15.785156 14.929688 15.847656 14.800781 C 16 14.496094 15.941406 14.152344 15.699219 13.90625 C 15.425781 13.632812 15.007812 13.597656 14.6875 13.824219 C 14.648438 13.851562 14.542969 13.953125 14.453125 14.050781 C 13.875 14.683594 13.140625 15.234375 12.351562 15.632812 C 11.527344 16.046875 10.722656 16.28125 9.757812 16.390625 C 9.519531 16.414062 8.78125 16.425781 8.511719 16.410156 C 7.09375 16.308594 5.777344 15.832031 4.648438 15.011719 C 3.035156 13.839844 1.964844 12.082031 1.667969 10.117188 C 1.578125 9.519531 1.566406 8.777344 1.632812 8.171875 C 1.773438 6.945312 2.21875 5.757812 2.914062 4.761719 C 3.339844 4.15625 3.878906 3.589844 4.457031 3.140625 C 5.574219 2.273438 6.859375 1.765625 8.316406 1.617188 C 8.574219 1.589844 9.398438 1.585938 9.640625 1.609375 C 11.238281 1.765625 12.570312 2.316406 13.792969 3.328125 C 13.882812 3.402344 14.113281 3.621094 14.304688 3.8125 C 14.5 4.007812 14.675781 4.179688 14.695312 4.195312 C 14.875 4.320312 15.125 4.363281 15.347656 4.308594 C 15.484375 4.273438 15.578125 4.21875 15.691406 4.105469 C 15.808594 3.992188 15.882812 3.859375 15.914062 3.703125 C 15.960938 3.488281 15.902344 3.246094 15.761719 3.070312 C 15.667969 2.953125 15.328125 2.601562 15.140625 2.429688 C 14.203125 1.566406 13.171875 0.941406 12 0.527344 C 10.957031 0.15625 9.785156 -0.0234375 8.679688 0.0195312 Z M 8.679688 0.0195312 "/>
<path style=" stroke:none;fill-rule:nonzero;fill:rgb(9.803922%,11.372549%,11.372549%);fill-opacity:1;" d="M 14.292969 5.496094 C 14.121094 5.535156 13.921875 5.664062 13.824219 5.804688 C 13.722656 5.953125 13.675781 6.09375 13.675781 6.265625 C 13.675781 6.394531 13.699219 6.488281 13.765625 6.621094 C 13.816406 6.726562 13.820312 6.730469 14.5625 7.472656 L 15.308594 8.222656 L 11.703125 8.222656 C 8.179688 8.222656 8.097656 8.222656 8.007812 8.246094 C 7.769531 8.304688 7.589844 8.457031 7.484375 8.683594 C 7.464844 8.730469 7.4375 8.796875 7.429688 8.832031 C 7.410156 8.917969 7.414062 9.113281 7.4375 9.199219 C 7.507812 9.476562 7.730469 9.695312 8.003906 9.765625 C 8.074219 9.78125 8.441406 9.785156 11.695312 9.785156 L 15.308594 9.785156 L 14.5625 10.53125 C 13.851562 11.25 13.816406 11.285156 13.765625 11.378906 C 13.695312 11.515625 13.671875 11.613281 13.671875 11.761719 C 13.675781 11.980469 13.746094 12.144531 13.90625 12.300781 C 14.0625 12.460938 14.230469 12.53125 14.449219 12.53125 C 14.644531 12.535156 14.796875 12.480469 14.953125 12.355469 C 14.992188 12.324219 15.664062 11.660156 16.445312 10.878906 L 17.863281 9.460938 L 17.914062 9.355469 C 17.972656 9.238281 18.003906 9.117188 18.003906 9.003906 C 18.003906 8.855469 17.945312 8.675781 17.863281 8.5625 C 17.839844 8.535156 17.167969 7.859375 16.371094 7.0625 L 14.914062 5.617188 L 14.8125 5.566406 C 14.640625 5.480469 14.46875 5.457031 14.292969 5.496094 Z M 14.292969 5.496094 "/>
</g>
</svg>
