<svg xmlns="http://www.w3.org/2000/svg" width="25.416" height="25" viewBox="0 0 25.416 25"><defs><style>.a{fill:#191D1D;}</style></defs><g transform="translate(0 4.7)"><path class="a" d="M8.6,24.3H20.7a4.012,4.012,0,0,0,4-4V12.4h-2v7.9a2.006,2.006,0,0,1-2,2H8.6a2.006,2.006,0,0,1-2-2V8.1a2.006,2.006,0,0,1,2-2h8.2V4H8.6a4.012,4.012,0,0,0-4,4V20.1A4.12,4.12,0,0,0,8.6,24.3Z" transform="translate(-4.6 -4)"/></g><g transform="translate(8.534 9.489)"><path class="a" d="M6.5,11.2h6a.945.945,0,0,0,1-1,.945.945,0,0,0-1-1h-6a.945.945,0,0,0-1,1A.945.945,0,0,0,6.5,11.2Z" transform="translate(-9.5 -9.2)"/></g><g transform="translate(4.422 13.614)"><path class="a" d="M10.5,15.2h9a1,1,0,0,0,0-2h-9a1,1,0,0,0,0,2Z" transform="translate(-9.5 -13.2)"/></g><g transform="translate(7.511 17.843)"><path class="a" d="M7.5,19.3h9a1,1,0,0,0,0-2h-9a1,1,0,0,0,0,2Z" transform="translate(-9.5 -17.3)"/></g><g transform="translate(18.671)"><path class="a" d="M5.6,11.489a1.016,1.016,0,0,0,1-1.138V1.138a1.008,1.008,0,1,0-2,0v9.214A1.075,1.075,0,0,0,5.6,11.489Z" transform="translate(-4.6)"/></g><g transform="translate(14.042 4.641)"><path class="a" d="M1.126,6.5h9.121a1.007,1.007,0,1,0,0-2H1.126a1.007,1.007,0,1,0,0,2Z" transform="translate(0 -4.5)"/></g></svg>
